<svg width="300" height="300" viewBox="0 0 300 300" fill="none" xmlns="http://www.w3.org/2000/svg">
<path d="M236.331 124.64C236.331 172.022 197.921 210.432 150.54 210.432C103.158 210.432 64.7482 172.022 64.7482 124.64C64.7482 77.259 103.158 38.8489 150.54 38.8489C197.921 38.8489 236.331 77.259 236.331 124.64ZM107.644 124.64C107.644 148.331 126.849 167.536 150.54 167.536C174.23 167.536 193.435 148.331 193.435 124.64C193.435 100.95 174.23 81.7446 150.54 81.7446C126.849 81.7446 107.644 100.95 107.644 124.64Z" fill="#1DD3B0"/>
<path d="M236.331 124.64C236.331 172.022 197.921 210.432 150.54 210.432C103.158 210.432 64.7482 172.022 64.7482 124.64C64.7482 77.259 103.158 38.8489 150.54 38.8489C197.921 38.8489 236.331 77.259 236.331 124.64ZM107.644 124.64C107.644 148.331 126.849 167.536 150.54 167.536C174.23 167.536 193.435 148.331 193.435 124.64C193.435 100.95 174.23 81.7446 150.54 81.7446C126.849 81.7446 107.644 100.95 107.644 124.64Z" fill="url(#paint0_linear)"/>
<path d="M271.875 150C287.408 150 300.266 162.7 297.371 177.961C295.461 188.025 292.521 197.892 288.582 207.403C281.044 225.601 269.995 242.137 256.066 256.066C242.137 269.995 225.601 281.044 207.403 288.582C189.204 296.12 169.698 300 150 300C130.302 300 110.796 296.12 92.5975 288.582C74.3986 281.044 57.8628 269.995 43.934 256.066C30.0052 242.137 18.9563 225.601 11.4181 207.403C7.47884 197.892 4.53863 188.025 2.62903 177.961C-0.26639 162.7 12.592 150 28.125 150C43.658 150 55.8469 162.866 60.4372 177.705C61.292 180.468 62.2756 183.195 63.3863 185.877C68.0977 197.251 75.0032 207.586 83.7087 216.291C92.4142 224.997 102.749 231.902 114.123 236.614C125.498 241.325 137.689 243.75 150 243.75C162.311 243.75 174.502 241.325 185.877 236.614C197.251 231.902 207.586 224.997 216.291 216.291C224.997 207.586 231.902 197.251 236.614 185.877C237.724 183.195 238.708 180.468 239.563 177.705C244.153 162.866 256.342 150 271.875 150Z" fill="#673EDC"/>
<path d="M271.875 150C287.408 150 300.266 162.7 297.371 177.961C295.461 188.025 292.521 197.892 288.582 207.403C281.044 225.601 269.995 242.137 256.066 256.066C242.137 269.995 225.601 281.044 207.403 288.582C189.204 296.12 169.698 300 150 300C130.302 300 110.796 296.12 92.5975 288.582C74.3986 281.044 57.8628 269.995 43.934 256.066C30.0052 242.137 18.9563 225.601 11.4181 207.403C7.47884 197.892 4.53863 188.025 2.62903 177.961C-0.26639 162.7 12.592 150 28.125 150C43.658 150 55.8469 162.866 60.4372 177.705C61.292 180.468 62.2756 183.195 63.3863 185.877C68.0977 197.251 75.0032 207.586 83.7087 216.291C92.4142 224.997 102.749 231.902 114.123 236.614C125.498 241.325 137.689 243.75 150 243.75C162.311 243.75 174.502 241.325 185.877 236.614C197.251 231.902 207.586 224.997 216.291 216.291C224.997 207.586 231.902 197.251 236.614 185.877C237.724 183.195 238.708 180.468 239.563 177.705C244.153 162.866 256.342 150 271.875 150Z" fill="url(#paint1_linear)"/>
<defs>
<linearGradient id="paint0_linear" x1="150.54" y1="38.8489" x2="150.54" y2="210.432" gradientUnits="userSpaceOnUse">
<stop stop-color="white" stop-opacity="0"/>
<stop offset="0.895833" stop-color="#673EDC"/>
</linearGradient>
<linearGradient id="paint1_linear" x1="150" y1="0" x2="150" y2="300" gradientUnits="userSpaceOnUse">
<stop stop-color="#1DD3B0"/>
<stop offset="1" stop-color="#673EDC"/>
</linearGradient>
</defs>
</svg>
