<svg width="496" height="210" viewBox="0 0 496 210" fill="none" xmlns="http://www.w3.org/2000/svg">
<path d="M65.75 49.35C80.9 49.35 93.8 55.125 104.45 66.675C115.25 78.075 120.65 92.1 120.65 108.75C120.65 125.4 115.25 139.5 104.45 151.05C93.8 162.45 80.9 168.15 65.75 168.15C50 168.15 37.85 162.675 29.3 151.725V210H0.275001V52.5H29.3V65.775C37.85 54.825 50 49.35 65.75 49.35ZM38.075 131.7C43.925 137.55 51.35 140.475 60.35 140.475C69.35 140.475 76.775 137.55 82.625 131.7C88.625 125.7 91.625 118.05 91.625 108.75C91.625 99.45 88.625 91.875 82.625 86.025C76.775 80.025 69.35 77.025 60.35 77.025C51.35 77.025 43.925 80.025 38.075 86.025C32.225 91.875 29.3 99.45 29.3 108.75C29.3 118.05 32.225 125.7 38.075 131.7ZM141.12 165V0.749996H170.145V165H141.12ZM277.821 57.5H305.556V165H277.821V152.315C269.507 162.778 257.826 168.01 242.776 168.01C228.442 168.01 216.116 162.563 205.796 151.67C195.619 140.633 190.531 127.16 190.531 111.25C190.531 95.34 195.619 81.9383 205.796 71.045C216.116 60.0083 228.442 54.49 242.776 54.49C257.826 54.49 269.507 59.7217 277.821 70.185V57.5ZM226.651 133.18C232.241 138.77 239.336 141.565 247.936 141.565C256.536 141.565 263.631 138.77 269.221 133.18C274.954 127.447 277.821 120.137 277.821 111.25C277.821 102.363 274.954 95.125 269.221 89.535C263.631 83.8017 256.536 80.935 247.936 80.935C239.336 80.935 232.241 83.8017 226.651 89.535C221.061 95.125 218.266 102.363 218.266 111.25C218.266 120.137 221.061 127.447 226.651 133.18ZM358.071 84.45C358.071 87.45 360.021 89.925 363.921 91.875C367.971 93.675 372.846 95.325 378.546 96.825C384.246 98.175 389.946 99.975 395.646 102.225C401.346 104.325 406.146 107.925 410.046 113.025C414.096 118.125 416.121 124.5 416.121 132.15C416.121 143.7 411.771 152.625 403.071 158.925C394.521 165.075 383.796 168.15 370.896 168.15C347.796 168.15 332.046 159.225 323.646 141.375L348.846 127.2C352.146 136.95 359.496 141.825 370.896 141.825C381.246 141.825 386.421 138.6 386.421 132.15C386.421 129.15 384.396 126.75 380.346 124.95C376.446 123 371.646 121.275 365.946 119.775C360.246 118.275 354.546 116.4 348.846 114.15C343.146 111.9 338.271 108.375 334.221 103.575C330.321 98.625 328.371 92.475 328.371 85.125C328.371 74.025 332.421 65.325 340.521 59.025C348.771 52.575 358.971 49.35 371.121 49.35C380.271 49.35 388.596 51.45 396.096 55.65C403.596 59.7 409.521 65.55 413.871 73.2L389.121 86.7C385.521 79.05 379.521 75.225 371.121 75.225C367.371 75.225 364.221 76.05 361.671 77.7C359.271 79.35 358.071 81.6 358.071 84.45ZM495.841 80.4H470.416V127.2C470.416 131.1 471.391 133.95 473.341 135.75C475.291 137.55 478.141 138.6 481.891 138.9C485.641 139.05 490.291 138.975 495.841 138.675V165C475.891 167.25 461.791 165.375 453.541 159.375C445.441 153.375 441.391 142.65 441.391 127.2V80.4H421.816V52.5H441.391V29.775L470.416 21V52.5H495.841V80.4Z" fill="white"/>
</svg>
